<svg width="266" height="91" viewBox="0 0 266 91" fill="none" xmlns="http://www.w3.org/2000/svg">
<rect x="29.7966" y="3.5" width="37.5019" height="55.7072" stroke="#F8F8F8" stroke-width="7"/>
<rect x="32.365" y="7.07985" width="32.365" height="48.5475" fill="#00E676"/>
<rect x="3.5" y="59.1274" width="26.3764" height="27.3878" stroke="#F8F8F8" stroke-width="7"/>
<path d="M87.1043 58.1463H96.6511V62.365H81.6199V39.615H87.1043V58.1463ZM113.073 52.7244H104.448V58.1463H114.636V62.365H98.9636V39.615H114.667V43.8494H104.448V48.6463H113.073V52.7244ZM135.042 43.8494H128.214V62.365H122.729V43.8494H116.026V39.615H135.042V43.8494ZM155.479 43.8494H148.651V62.365H143.167V43.8494H136.464V39.615H155.479V43.8494ZM176.573 56.3181C176.573 55.5161 176.287 54.8911 175.714 54.4431C175.151 53.9952 174.156 53.5317 172.729 53.0525C171.302 52.5734 170.136 52.1098 169.229 51.6619C166.281 50.214 164.807 48.2244 164.807 45.6931C164.807 44.4327 165.172 43.3234 165.901 42.365C166.641 41.3963 167.682 40.6463 169.026 40.115C170.37 39.5734 171.88 39.3025 173.557 39.3025C175.193 39.3025 176.656 39.5942 177.948 40.1775C179.25 40.7609 180.261 41.5942 180.979 42.6775C181.698 43.7504 182.057 44.9796 182.057 46.365H176.589C176.589 45.4379 176.302 44.7192 175.729 44.2088C175.167 43.6984 174.401 43.4431 173.432 43.4431C172.453 43.4431 171.677 43.6619 171.104 44.0994C170.542 44.5265 170.261 45.0734 170.261 45.74C170.261 46.3234 170.573 46.8546 171.198 47.3338C171.823 47.8025 172.922 48.2921 174.495 48.8025C176.068 49.3025 177.359 49.8442 178.37 50.4275C180.828 51.8442 182.057 53.7973 182.057 56.2869C182.057 58.2765 181.307 59.839 179.807 60.9744C178.307 62.1098 176.25 62.6775 173.636 62.6775C171.792 62.6775 170.12 62.3494 168.62 61.6931C167.13 61.0265 166.005 60.1202 165.245 58.9744C164.495 57.8181 164.12 56.49 164.12 54.99H169.62C169.62 56.2088 169.932 57.1098 170.557 57.6931C171.193 58.2661 172.219 58.5525 173.636 58.5525C174.542 58.5525 175.255 58.3598 175.776 57.9744C176.307 57.5786 176.573 57.0265 176.573 56.3181ZM202.729 43.8494H195.901V62.365H190.417V43.8494H183.714V39.615H202.729V43.8494ZM223.886 51.4588C223.886 53.6775 223.474 55.6411 222.651 57.3494C221.828 59.0577 220.656 60.3754 219.136 61.3025C217.625 62.2192 215.901 62.6775 213.964 62.6775C212.026 62.6775 210.307 62.2348 208.807 61.3494C207.307 60.4536 206.136 59.1775 205.292 57.5213C204.458 55.865 204.021 53.964 203.979 51.8181V50.5369C203.979 48.3077 204.386 46.3442 205.198 44.6463C206.021 42.9379 207.193 41.6202 208.714 40.6931C210.245 39.7661 211.984 39.3025 213.932 39.3025C215.859 39.3025 217.578 39.7609 219.089 40.6775C220.599 41.5942 221.771 42.9015 222.604 44.5994C223.448 46.2869 223.875 48.2244 223.886 50.4119V51.4588ZM218.307 50.5056C218.307 48.2452 217.927 46.5317 217.167 45.365C216.417 44.1879 215.339 43.5994 213.932 43.5994C211.182 43.5994 209.729 45.6619 209.573 49.7869L209.557 51.4588C209.557 53.6879 209.927 55.4015 210.667 56.5994C211.406 57.7973 212.505 58.3963 213.964 58.3963C215.349 58.3963 216.417 57.8077 217.167 56.6306C217.917 55.4536 218.297 53.7609 218.307 51.5525V50.5056ZM235.167 54.3338H232.198V62.365H226.714V39.615H235.667C238.365 39.615 240.474 40.214 241.995 41.4119C243.516 42.6098 244.276 44.3025 244.276 46.49C244.276 48.0734 243.953 49.3859 243.307 50.4275C242.672 51.4692 241.672 52.3129 240.307 52.9588L245.057 62.1306V62.365H239.182L235.167 54.3338ZM232.198 50.0994H235.667C236.708 50.0994 237.49 49.8286 238.011 49.2869C238.542 48.7348 238.807 47.9692 238.807 46.99C238.807 46.0109 238.542 45.2452 238.011 44.6931C237.479 44.1306 236.698 43.8494 235.667 43.8494H232.198V50.0994ZM261.698 52.7244H253.073V58.1463H263.261V62.365H247.589V39.615H263.292V43.8494H253.073V48.6463H261.698V52.7244Z" fill="#F8F8F8"/>
</svg>
