<svg width="263" height="89" viewBox="0 0 263 89" fill="none" xmlns="http://www.w3.org/2000/svg">
<rect x="29.5" y="3.5" width="37" height="55" stroke="black" stroke-width="7"/>
<rect x="32" y="7" width="32" height="48" fill="#00E676"/>
<rect x="3.5" y="58.5" width="26" height="27" stroke="black" stroke-width="7"/>
<path d="M86.2031 57.7812H95.75V62H80.7188V39.25H86.2031V57.7812ZM112.172 52.3594H103.547V57.7812H113.734V62H98.0625V39.25H113.766V43.4844H103.547V48.2812H112.172V52.3594ZM134.141 43.4844H127.312V62H121.828V43.4844H115.125V39.25H134.141V43.4844ZM154.578 43.4844H147.75V62H142.266V43.4844H135.562V39.25H154.578V43.4844ZM175.672 55.9531C175.672 55.151 175.385 54.526 174.812 54.0781C174.25 53.6302 173.255 53.1667 171.828 52.6875C170.401 52.2083 169.234 51.7448 168.328 51.2969C165.38 49.849 163.906 47.8594 163.906 45.3281C163.906 44.0677 164.271 42.9583 165 42C165.74 41.0312 166.781 40.2812 168.125 39.75C169.469 39.2083 170.979 38.9375 172.656 38.9375C174.292 38.9375 175.755 39.2292 177.047 39.8125C178.349 40.3958 179.359 41.2292 180.078 42.3125C180.797 43.3854 181.156 44.6146 181.156 46H175.688C175.688 45.0729 175.401 44.3542 174.828 43.8438C174.266 43.3333 173.5 43.0781 172.531 43.0781C171.552 43.0781 170.776 43.2969 170.203 43.7344C169.641 44.1615 169.359 44.7083 169.359 45.375C169.359 45.9583 169.672 46.4896 170.297 46.9688C170.922 47.4375 172.021 47.9271 173.594 48.4375C175.167 48.9375 176.458 49.4792 177.469 50.0625C179.927 51.4792 181.156 53.4323 181.156 55.9219C181.156 57.9115 180.406 59.474 178.906 60.6094C177.406 61.7448 175.349 62.3125 172.734 62.3125C170.891 62.3125 169.219 61.9844 167.719 61.3281C166.229 60.6615 165.104 59.7552 164.344 58.6094C163.594 57.4531 163.219 56.125 163.219 54.625H168.719C168.719 55.8438 169.031 56.7448 169.656 57.3281C170.292 57.901 171.318 58.1875 172.734 58.1875C173.641 58.1875 174.354 57.9948 174.875 57.6094C175.406 57.2135 175.672 56.6615 175.672 55.9531ZM201.828 43.4844H195V62H189.516V43.4844H182.812V39.25H201.828V43.4844ZM222.984 51.0938C222.984 53.3125 222.573 55.276 221.75 56.9844C220.927 58.6927 219.755 60.0104 218.234 60.9375C216.724 61.8542 215 62.3125 213.062 62.3125C211.125 62.3125 209.406 61.8698 207.906 60.9844C206.406 60.0885 205.234 58.8125 204.391 57.1562C203.557 55.5 203.12 53.599 203.078 51.4531V50.1719C203.078 47.9427 203.484 45.9792 204.297 44.2812C205.12 42.5729 206.292 41.2552 207.812 40.3281C209.344 39.401 211.083 38.9375 213.031 38.9375C214.958 38.9375 216.677 39.3958 218.188 40.3125C219.698 41.2292 220.87 42.5365 221.703 44.2344C222.547 45.9219 222.974 47.8594 222.984 50.0469V51.0938ZM217.406 50.1406C217.406 47.8802 217.026 46.1667 216.266 45C215.516 43.8229 214.438 43.2344 213.031 43.2344C210.281 43.2344 208.828 45.2969 208.672 49.4219L208.656 51.0938C208.656 53.3229 209.026 55.0365 209.766 56.2344C210.505 57.4323 211.604 58.0312 213.062 58.0312C214.448 58.0312 215.516 57.4427 216.266 56.2656C217.016 55.0885 217.396 53.3958 217.406 51.1875V50.1406ZM234.266 53.9688H231.297V62H225.812V39.25H234.766C237.464 39.25 239.573 39.849 241.094 41.0469C242.615 42.2448 243.375 43.9375 243.375 46.125C243.375 47.7083 243.052 49.0208 242.406 50.0625C241.771 51.1042 240.771 51.9479 239.406 52.5938L244.156 61.7656V62H238.281L234.266 53.9688ZM231.297 49.7344H234.766C235.807 49.7344 236.589 49.4635 237.109 48.9219C237.641 48.3698 237.906 47.6042 237.906 46.625C237.906 45.6458 237.641 44.8802 237.109 44.3281C236.578 43.7656 235.797 43.4844 234.766 43.4844H231.297V49.7344ZM260.797 52.3594H252.172V57.7812H262.359V62H246.688V39.25H262.391V43.4844H252.172V48.2812H260.797V52.3594Z" fill="black"/>
</svg>
